<svg viewBox="0 0 1100 820" xmlns="http://www.w3.org/2000/svg" role="img" font-family="Arial, sans-serif">
  <title>KidneyHub Microservice Architecture</title>
  <desc>Arsitektur microservice KidneyHub dengan 13 container: Traefik, Web, Auth, Donor, Notification, PostgreSQL, MongoDB, Redis, Mosquitto, Prometheus, Grafana, Node Exporter, cAdvisor</desc>

  <!-- Background -->
  <rect width="1100" height="820" fill="#F0F4F8"/>

  <!-- Title -->
  <rect x="0" y="0" width="1100" height="48" fill="#1E3A5F"/>
  <text x="550" y="30" text-anchor="middle" fill="white" font-size="18" font-weight="bold" letter-spacing="1">KidneyHub Microservice Platform — Arsitektur AFL-3</text>
  <text x="550" y="44" text-anchor="middle" fill="#93C5FD" font-size="11">13 Containers · Traefik API Gateway · REST API + WebSocket + MQTT · Prometheus + Grafana Monitoring</text>

  <!-- ZONE: traefik-public zone -->
  <rect x="220" y="58" width="530" height="490" rx="12" fill="none" stroke="#2563EB" stroke-width="1.5" stroke-dasharray="6,4" opacity="0.5"/>
  <text x="228" y="73" fill="#2563EB" font-size="10" font-weight="bold" opacity="0.7">NETWORK: traefik-public</text>

  <!-- backend zone -->
  <rect x="220" y="330" width="440" height="160" rx="12" fill="none" stroke="#0D9488" stroke-width="1.5" stroke-dasharray="6,4" opacity="0.4"/>
  <text x="228" y="345" fill="#0D9488" font-size="10" font-weight="bold" opacity="0.7">NETWORK: backend (PostgreSQL · Redis)</text>

  <!-- data zone -->
  <rect x="540" y="410" width="210" height="130" rx="12" fill="none" stroke="#7C3AED" stroke-width="1.5" stroke-dasharray="6,4" opacity="0.4"/>
  <text x="548" y="425" fill="#7C3AED" font-size="10" font-weight="bold" opacity="0.7">NETWORK: data (MongoDB · Mosquitto)</text>

  <!-- monitoring zone -->
  <rect x="770" y="58" width="315" height="490" rx="12" fill="#E8F4FF" stroke="#1D4ED8" stroke-width="1.5" stroke-dasharray="5,4" opacity="0.8"/>
  <text x="925" y="78" text-anchor="middle" fill="#1D4ED8" font-size="11" font-weight="bold" opacity="0.9">MONITORING NETWORK</text>

  <!-- CLIENT: Browser -->
  <g transform="translate(30, 120)">
    <circle cx="55" cy="35" r="28" fill="#1E3A5F" opacity="0.12"/>
    <rect x="32" y="15" width="46" height="32" rx="4" fill="none" stroke="#1E3A5F" stroke-width="2"/>
    <rect x="32" y="15" width="46" height="8" rx="4" fill="#1E3A5F"/>
    <rect x="44" y="48" width="22" height="5" rx="2" fill="#1E3A5F"/>
    <rect x="38" y="53" width="34" height="3" rx="1" fill="#1E3A5F"/>
    <text x="55" y="72" text-anchor="middle" fill="#1E3A5F" font-size="10" font-weight="bold">BROWSER</text>
  </g>

  <!-- CLIENT: Mobile -->
  <g transform="translate(30, 220)">
    <circle cx="55" cy="35" r="28" fill="#1E3A5F" opacity="0.12"/>
    <rect x="37" y="10" width="36" height="58" rx="5" fill="none" stroke="#1E3A5F" stroke-width="2"/>
    <rect x="37" y="10" width="36" height="10" rx="5" fill="#1E3A5F"/>
    <circle cx="55" cy="62" r="3" fill="#1E3A5F"/>
    <text x="55" y="82" text-anchor="middle" fill="#1E3A5F" font-size="10" font-weight="bold">MOBILE</text>
  </g>

  <!-- Arrows clients → Traefik -->
  <line x1="110" y1="155" x2="230" y2="250" stroke="#2563EB" stroke-width="2" stroke-dasharray="4,3" marker-end="url(#arr-blue)"/>
  <line x1="110" y1="255" x2="230" y2="270" stroke="#2563EB" stroke-width="2" stroke-dasharray="4,3" marker-end="url(#arr-blue)"/>
  <text x="145" y="205" fill="#2563EB" font-size="9" transform="rotate(-15,145,205)">HTTPS</text>

  <!-- TRAEFIK -->
  <rect x="230" y="190" width="150" height="120" rx="10" fill="white" stroke="#2563EB" stroke-width="3"/>
  <rect x="230" y="190" width="150" height="32" rx="10" fill="#2563EB"/>
  <rect x="230" y="210" width="150" height="12" fill="#2563EB"/>
  <text x="305" y="211" text-anchor="middle" fill="white" font-size="11" font-weight="bold">TRAEFIK</text>
  <text x="305" y="225" text-anchor="middle" fill="#BFDBFE" font-size="9">API Gateway</text>
  <text x="305" y="248" text-anchor="middle" fill="#374151" font-size="9" font-weight="bold">:80 · :8080</text>
  <rect x="250" y="258" width="110" height="16" rx="8" fill="#DBEAFE"/>
  <text x="305" y="270" text-anchor="middle" fill="#1E40AF" font-size="9" font-weight="bold">ForwardAuth Middleware</text>
  <text x="305" y="296" text-anchor="middle" fill="#6B7280" font-size="9">Router + Load Balancer</text>

  <!-- WEB FRONTEND -->
  <rect x="430" y="80" width="135" height="95" rx="8" fill="white" stroke="#059669" stroke-width="2"/>
  <rect x="430" y="80" width="135" height="26" rx="8" fill="#059669"/>
  <rect x="430" y="96" width="135" height="10" fill="#059669"/>
  <text x="497" y="97" text-anchor="middle" fill="white" font-size="10" font-weight="bold">WEB FRONTEND</text>
  <text x="497" y="124" text-anchor="middle" fill="#374151" font-size="9">Node.js + Express</text>
  <text x="497" y="138" text-anchor="middle" fill="#374151" font-size="9">8 halaman website</text>
  <text x="497" y="152" text-anchor="middle" fill="#6B7280" font-size="8">port :3000</text>
  <rect x="445" y="160" width="105" height="14" rx="7" fill="#D1FAE5"/>
  <text x="497" y="171" text-anchor="middle" fill="#065F46" font-size="8">KidneyHub UI</text>

  <!-- AUTH SERVICE -->
  <rect x="430" y="210" width="135" height="95" rx="8" fill="white" stroke="#DC2626" stroke-width="2"/>
  <rect x="430" y="210" width="135" height="26" rx="8" fill="#DC2626"/>
  <rect x="430" y="226" width="135" height="10" fill="#DC2626"/>
  <text x="497" y="227" text-anchor="middle" fill="white" font-size="10" font-weight="bold">AUTH SERVICE</text>
  <text x="497" y="254" text-anchor="middle" fill="#374151" font-size="9">JWT Authentication</text>
  <text x="497" y="268" text-anchor="middle" fill="#374151" font-size="9">/api/auth/*</text>
  <text x="497" y="282" text-anchor="middle" fill="#6B7280" font-size="8">port :4000</text>
  <rect x="445" y="291" width="105" height="14" rx="7" fill="#FEE2E2"/>
  <text x="497" y="302" text-anchor="middle" fill="#991B1B" font-size="8">verify JWT token</text>

  <!-- DONOR SERVICE -->
  <rect x="430" y="348" width="135" height="100" rx="8" fill="white" stroke="#D97706" stroke-width="2"/>
  <rect x="430" y="348" width="135" height="26" rx="8" fill="#D97706"/>
  <rect x="430" y="364" width="135" height="10" fill="#D97706"/>
  <text x="497" y="365" text-anchor="middle" fill="white" font-size="10" font-weight="bold">DONOR SERVICE</text>
  <text x="497" y="392" text-anchor="middle" fill="#374151" font-size="9">REST API CRUD</text>
  <text x="497" y="406" text-anchor="middle" fill="#374151" font-size="9">/api/donors/*</text>
  <rect x="445" y="415" width="105" height="14" rx="7" fill="#FEF3C7"/>
  <text x="497" y="426" text-anchor="middle" fill="#92400E" font-size="8">MQTT Publisher</text>
  <text x="497" y="440" text-anchor="middle" fill="#6B7280" font-size="8">port :4001</text>

  <!-- NOTIFICATION SERVICE -->
  <rect x="430" y="490" width="135" height="100" rx="8" fill="white" stroke="#7C3AED" stroke-width="2"/>
  <rect x="430" y="490" width="135" height="26" rx="8" fill="#7C3AED"/>
  <rect x="430" y="506" width="135" height="10" fill="#7C3AED"/>
  <text x="497" y="507" text-anchor="middle" fill="white" font-size="10" font-weight="bold">NOTIFICATION SVC</text>
  <text x="497" y="534" text-anchor="middle" fill="#374151" font-size="9">Socket.io WebSocket</text>
  <text x="497" y="548" text-anchor="middle" fill="#374151" font-size="9">MQTT Subscriber</text>
  <rect x="445" y="557" width="105" height="14" rx="7" fill="#EDE9FE"/>
  <text x="497" y="568" text-anchor="middle" fill="#5B21B6" font-size="8">Real-time Broadcast</text>
  <text x="497" y="582" text-anchor="middle" fill="#6B7280" font-size="8">port :4002</text>

  <!-- Arrows Traefik → Services -->
  <line x1="380" y1="230" x2="430" y2="130" stroke="#059669" stroke-width="2" marker-end="url(#arr-green)"/>
  <rect x="383" y="155" width="46" height="14" rx="4" fill="#D1FAE5"/>
  <text x="406" y="165" text-anchor="middle" fill="#065F46" font-size="8" font-weight="bold">REST API</text>

  <line x1="380" y1="250" x2="430" y2="255" stroke="#DC2626" stroke-width="2" marker-end="url(#arr-red)"/>
  <rect x="387" y="242" width="46" height="14" rx="4" fill="#FEE2E2"/>
  <text x="410" y="252" text-anchor="middle" fill="#991B1B" font-size="8" font-weight="bold">REST API</text>

  <line x1="380" y1="270" x2="430" y2="395" stroke="#D97706" stroke-width="2" marker-end="url(#arr-amber)"/>
  <rect x="373" y="320" width="58" height="14" rx="4" fill="#FEF3C7"/>
  <text x="402" y="330" text-anchor="middle" fill="#92400E" font-size="8" font-weight="bold">+AuthMW</text>

  <path d="M380,280 Q370,490 430,530" fill="none" stroke="#7C3AED" stroke-width="2" stroke-dasharray="5,3" marker-end="url(#arr-purple)"/>
  <rect x="355" y="400" width="46" height="14" rx="4" fill="#EDE9FE"/>
  <text x="378" y="410" text-anchor="middle" fill="#5B21B6" font-size="8" font-weight="bold">REST API</text>

  <!-- POSTGRESQL -->
  <rect x="230" y="360" width="110" height="75" rx="8" fill="white" stroke="#0D9488" stroke-width="2"/>
  <rect x="230" y="360" width="110" height="24" rx="8" fill="#0D9488"/>
  <rect x="230" y="373" width="110" height="11" fill="#0D9488"/>
  <text x="285" y="374" text-anchor="middle" fill="white" font-size="9" font-weight="bold">POSTGRESQL</text>
  <text x="285" y="398" text-anchor="middle" fill="#374151" font-size="8">users + donors</text>
  <text x="285" y="412" text-anchor="middle" fill="#6B7280" font-size="8">:5432</text>
  <rect x="248" y="420" width="74" height="12" rx="6" fill="#CCFBF1"/>
  <text x="285" y="430" text-anchor="middle" fill="#0F766E" font-size="8">port :5432</text>

  <!-- REDIS -->
  <rect x="230" y="455" width="110" height="65" rx="8" fill="white" stroke="#EF4444" stroke-width="2"/>
  <rect x="230" y="455" width="110" height="24" rx="8" fill="#EF4444"/>
  <rect x="230" y="468" width="110" height="11" fill="#EF4444"/>
  <text x="285" y="469" text-anchor="middle" fill="white" font-size="9" font-weight="bold">REDIS</text>
  <text x="285" y="493" text-anchor="middle" fill="#374151" font-size="8">Cache · Session</text>
  <rect x="248" y="508" width="74" height="12" rx="6" fill="#FEE2E2"/>
  <text x="285" y="518" text-anchor="middle" fill="#991B1B" font-size="8">port :6379</text>

  <!-- Arrows → PostgreSQL -->
  <line x1="430" y1="260" x2="340" y2="390" stroke="#0D9488" stroke-width="1.5" stroke-dasharray="4,3" marker-end="url(#arr-teal)"/>
  <line x1="430" y1="400" x2="340" y2="400" stroke="#0D9488" stroke-width="1.5" stroke-dasharray="4,3" marker-end="url(#arr-teal)"/>

  <!-- Arrow → Redis -->
  <line x1="430" y1="420" x2="340" y2="460" stroke="#EF4444" stroke-width="1.5" stroke-dasharray="4,3" marker-end="url(#arr-red2)"/>

  <!-- MONGODB -->
  <rect x="565" y="432" width="105" height="65" rx="8" fill="white" stroke="#7C3AED" stroke-width="2"/>
  <rect x="565" y="432" width="105" height="24" rx="8" fill="#7C3AED"/>
  <rect x="565" y="446" width="105" height="10" fill="#7C3AED"/>
  <text x="617" y="447" text-anchor="middle" fill="white" font-size="9" font-weight="bold">MONGODB</text>
  <text x="617" y="471" text-anchor="middle" fill="#374151" font-size="8">notifications store</text>
  <rect x="580" y="484" width="75" height="12" rx="6" fill="#EDE9FE"/>
  <text x="617" y="494" text-anchor="middle" fill="#5B21B6" font-size="8">port :27017</text>

  <!-- MOSQUITTO -->
  <rect x="565" y="510" width="105" height="65" rx="8" fill="white" stroke="#1D4ED8" stroke-width="2"/>
  <rect x="565" y="510" width="105" height="24" rx="8" fill="#1D4ED8"/>
  <rect x="565" y="524" width="105" height="10" fill="#1D4ED8"/>
  <text x="617" y="525" text-anchor="middle" fill="white" font-size="9" font-weight="bold">MOSQUITTO</text>
  <text x="617" y="549" text-anchor="middle" fill="#374151" font-size="8">MQTT Broker</text>
  <rect x="580" y="562" width="75" height="12" rx="6" fill="#DBEAFE"/>
  <text x="617" y="572" text-anchor="middle" fill="#1E40AF" font-size="8">port :1883</text>

  <!-- Arrow donor → Mosquitto (MQTT Publish) -->
  <path d="M565,420 C590,440 590,500 565,530" fill="none" stroke="#D97706" stroke-width="2" stroke-dasharray="5,3" marker-end="url(#arr-amber)"/>
  <rect x="562" y="460" width="70" height="14" rx="4" fill="#FEF3C7"/>
  <text x="597" y="470" text-anchor="middle" fill="#92400E" font-size="8" font-weight="bold">MQTT Publish</text>

  <!-- Arrow Mosquitto → notification (MQTT Subscribe) -->
  <path d="M565,540 C545,555 535,570 530,570 Q520,570 510,570 L497,582" fill="none" stroke="#7C3AED" stroke-width="2" stroke-dasharray="5,3" marker-end="url(#arr-purple)"/>
  <rect x="516" y="553" width="70" height="14" rx="4" fill="#EDE9FE"/>
  <text x="551" y="563" text-anchor="middle" fill="#5B21B6" font-size="8" font-weight="bold">MQTT Subscribe</text>

  <!-- Arrow notification → MongoDB -->
  <line x1="565" y1="545" x2="565" y2="460" stroke="#7C3AED" stroke-width="1.5" stroke-dasharray="3,3" marker-end="url(#arr-purple)"/>

  <!-- WebSocket back to client -->
  <path d="M430,530 Q200,580 110,280" fill="none" stroke="#7C3AED" stroke-width="2" stroke-dasharray="6,3" marker-end="url(#arr-purple)" opacity="0.6"/>
  <rect x="140" y="390" width="70" height="14" rx="4" fill="#EDE9FE" opacity="0.9"/>
  <text x="175" y="400" text-anchor="middle" fill="#5B21B6" font-size="8" font-weight="bold">WebSocket</text>

  <!-- PROMETHEUS -->
  <rect x="785" y="90" width="120" height="70" rx="8" fill="white" stroke="#E5470A" stroke-width="2"/>
  <rect x="785" y="90" width="120" height="24" rx="8" fill="#E5470A"/>
  <rect x="785" y="104" width="120" height="10" fill="#E5470A"/>
  <text x="845" y="105" text-anchor="middle" fill="white" font-size="9" font-weight="bold">PROMETHEUS</text>
  <text x="845" y="129" text-anchor="middle" fill="#374151" font-size="8">Metrics Collector</text>
  <rect x="800" y="144" width="90" height="14" rx="7" fill="#FEE2E2"/>
  <text x="845" y="154" text-anchor="middle" fill="#991B1B" font-size="8">Scrape setiap 15s</text>

  <!-- GRAFANA -->
  <rect x="785" y="185" width="120" height="70" rx="8" fill="white" stroke="#E6522C" stroke-width="2"/>
  <rect x="785" y="185" width="120" height="24" rx="8" fill="#E6522C"/>
  <rect x="785" y="199" width="120" height="10" fill="#E6522C"/>
  <text x="845" y="200" text-anchor="middle" fill="white" font-size="9" font-weight="bold">GRAFANA</text>
  <text x="845" y="224" text-anchor="middle" fill="#374151" font-size="8">Monitoring Dashboard</text>
  <rect x="800" y="239" width="90" height="14" rx="7" fill="#FED7AA"/>
  <text x="845" y="249" text-anchor="middle" fill="#9A3412" font-size="8">port :3001</text>

  <!-- NODE EXPORTER -->
  <rect x="785" y="285" width="120" height="70" rx="8" fill="white" stroke="#374151" stroke-width="2"/>
  <rect x="785" y="285" width="120" height="24" rx="8" fill="#374151"/>
  <rect x="785" y="299" width="120" height="10" fill="#374151"/>
  <text x="845" y="300" text-anchor="middle" fill="white" font-size="9" font-weight="bold">NODE EXPORTER</text>
  <text x="845" y="325" text-anchor="middle" fill="#374151" font-size="8">Host Metrics</text>
  <rect x="800" y="338" width="90" height="14" rx="7" fill="#F3F4F6"/>
  <text x="845" y="348" text-anchor="middle" fill="#1F2937" font-size="8">CPU · RAM · Disk</text>

  <!-- CADVISOR -->
  <rect x="785" y="385" width="120" height="70" rx="8" fill="white" stroke="#2563EB" stroke-width="2"/>
  <rect x="785" y="385" width="120" height="24" rx="8" fill="#2563EB"/>
  <rect x="785" y="399" width="120" height="10" fill="#2563EB"/>
  <text x="845" y="400" text-anchor="middle" fill="white" font-size="9" font-weight="bold">CADVISOR</text>
  <text x="845" y="424" text-anchor="middle" fill="#374151" font-size="8">Container Metrics</text>
  <rect x="800" y="438" width="90" height="14" rx="7" fill="#DBEAFE"/>
  <text x="845" y="448" text-anchor="middle" fill="#1E40AF" font-size="8">per container real-time</text>

  <!-- Monitoring arrows -->
  <line x1="845" y1="285" x2="845" y2="160" stroke="#374151" stroke-width="2" marker-end="url(#arr-dark)"/>
  <text x="850" y="224" fill="#374151" font-size="8">scrape :9100</text>
  <path d="M845,385 Q895,285 905,160" fill="none" stroke="#2563EB" stroke-width="2" marker-end="url(#arr-blue)"/>
  <text x="910" y="270" fill="#2563EB" font-size="8">scrape :8080</text>
  <line x1="845" y1="160" x2="845" y2="185" stroke="#E5470A" stroke-width="2" marker-end="url(#arr-orange)"/>
  <text x="850" y="175" fill="#E5470A" font-size="8">data</text>

  <!-- LEGEND -->
  <rect x="20" y="640" width="1060" height="165" rx="10" fill="white" stroke="#E5E7EB" stroke-width="1.5"/>
  <text x="550" y="662" text-anchor="middle" fill="#1E3A5F" font-size="12" font-weight="bold">KETERANGAN ARSITEKTUR</text>

  <!-- 13 Containers -->
  <rect x="35" y="670" width="240" height="125" rx="8" fill="#F8FAFC" stroke="#E2E8F0" stroke-width="1"/>
  <text x="155" y="688" text-anchor="middle" fill="#1E3A5F" font-size="10" font-weight="bold">13 CONTAINERS</text>
  <text x="45" y="704" fill="#374151" font-size="9">1. traefik (API Gateway)</text>
  <text x="45" y="717" fill="#374151" font-size="9">2. web (Frontend :3000)</text>
  <text x="45" y="730" fill="#374151" font-size="9">3. auth-service (:4000)</text>
  <text x="45" y="743" fill="#374151" font-size="9">4. donor-service (:4001)</text>
  <text x="45" y="756" fill="#374151" font-size="9">5. notification-service (:4002)</text>
  <text x="45" y="769" fill="#374151" font-size="9">6. postgres  7. mongo  8. redis</text>
  <text x="45" y="782" fill="#374151" font-size="9">9. mosquitto  10. prometheus</text>
  <text x="45" y="795" fill="#374151" font-size="9">11. grafana  12. node-exporter  13. cadvisor</text>

  <!-- Communication -->
  <rect x="290" y="670" width="250" height="125" rx="8" fill="#F8FAFC" stroke="#E2E8F0" stroke-width="1"/>
  <text x="415" y="688" text-anchor="middle" fill="#1E3A5F" font-size="10" font-weight="bold">SKEMA KOMUNIKASI</text>
  <line x1="305" y1="700" x2="345" y2="700" stroke="#2563EB" stroke-width="2" marker-end="url(#arr-blue)"/>
  <text x="352" y="704" fill="#374151" font-size="9">REST API (HTTP) — Traefik routing</text>
  <line x1="305" y1="718" x2="345" y2="718" stroke="#D97706" stroke-width="2" stroke-dasharray="5,3" marker-end="url(#arr-amber)"/>
  <text x="352" y="722" fill="#374151" font-size="9">MQTT Publish (donor → mosquitto)</text>
  <line x1="305" y1="736" x2="345" y2="736" stroke="#7C3AED" stroke-width="2" stroke-dasharray="5,3" marker-end="url(#arr-purple)"/>
  <text x="352" y="740" fill="#374151" font-size="9">MQTT Subscribe (notif ← mosquitto)</text>
  <line x1="305" y1="754" x2="345" y2="754" stroke="#7C3AED" stroke-width="2" marker-end="url(#arr-purple)"/>
  <text x="352" y="758" fill="#374151" font-size="9">WebSocket (notif → browser)</text>
  <line x1="305" y1="772" x2="345" y2="772" stroke="#0D9488" stroke-width="1.5" stroke-dasharray="3,3" marker-end="url(#arr-teal)"/>
  <text x="352" y="776" fill="#374151" font-size="9">DB Connection (service → DB)</text>

  <!-- Auth Middleware -->
  <rect x="555" y="670" width="230" height="125" rx="8" fill="#F8FAFC" stroke="#E2E8F0" stroke-width="1"/>
  <text x="670" y="688" text-anchor="middle" fill="#1E3A5F" font-size="10" font-weight="bold">AUTH MIDDLEWARE</text>
  <text x="565" y="704" fill="#374151" font-size="9">Traefik ForwardAuth:</text>
  <text x="565" y="718" fill="#374151" font-size="9">Request → /api/donors/*</text>
  <text x="575" y="732" fill="#DC2626" font-size="9" font-weight="bold">↓ Validasi ke auth-service</text>
  <text x="565" y="748" fill="#374151" font-size="9">✓ Token valid → lanjut</text>
  <text x="565" y="762" fill="#374151" font-size="9">✗ Token invalid → 401</text>
  <rect x="563" y="772" width="210" height="16" rx="8" fill="#DBEAFE"/>
  <text x="668" y="783" text-anchor="middle" fill="#1E40AF" font-size="9" font-weight="bold">JWT via Authorization: Bearer</text>

  <!-- Monitoring -->
  <rect x="800" y="670" width="265" height="125" rx="8" fill="#F8FAFC" stroke="#E2E8F0" stroke-width="1"/>
  <text x="932" y="688" text-anchor="middle" fill="#1E3A5F" font-size="10" font-weight="bold">MONITORING STACK</text>
  <text x="810" y="704" fill="#374151" font-size="9">HOST: Node Exporter → Prometheus → Grafana</text>
  <text x="820" y="718" fill="#6B7280" font-size="8">CPU, RAM, disk I/O, network metrics</text>
  <text x="810" y="733" fill="#374151" font-size="9">CONTAINER: cAdvisor → Prometheus → Grafana</text>
  <text x="820" y="747" fill="#6B7280" font-size="8">CPU/RAM per container real-time</text>
  <text x="810" y="762" fill="#374151" font-size="9">Prometheus: :9090 (scrape 15s)</text>
  <text x="810" y="776" fill="#374151" font-size="9">Grafana: :3001  (admin/admin123)</text>
  <text x="810" y="790" fill="#6B7280" font-size="8">4 Docker networks terpisah</text>

  <defs>
    <marker id="arr-blue" markerWidth="8" markerHeight="6" refX="8" refY="3" orient="auto">
      <polygon points="0 0, 8 3, 0 6" fill="#2563EB"/>
    </marker>
    <marker id="arr-green" markerWidth="8" markerHeight="6" refX="8" refY="3" orient="auto">
      <polygon points="0 0, 8 3, 0 6" fill="#059669"/>
    </marker>
    <marker id="arr-red" markerWidth="8" markerHeight="6" refX="8" refY="3" orient="auto">
      <polygon points="0 0, 8 3, 0 6" fill="#DC2626"/>
    </marker>
    <marker id="arr-red2" markerWidth="8" markerHeight="6" refX="8" refY="3" orient="auto">
      <polygon points="0 0, 8 3, 0 6" fill="#EF4444"/>
    </marker>
    <marker id="arr-amber" markerWidth="8" markerHeight="6" refX="8" refY="3" orient="auto">
      <polygon points="0 0, 8 3, 0 6" fill="#D97706"/>
    </marker>
    <marker id="arr-purple" markerWidth="8" markerHeight="6" refX="8" refY="3" orient="auto">
      <polygon points="0 0, 8 3, 0 6" fill="#7C3AED"/>
    </marker>
    <marker id="arr-teal" markerWidth="8" markerHeight="6" refX="8" refY="3" orient="auto">
      <polygon points="0 0, 8 3, 0 6" fill="#0D9488"/>
    </marker>
    <marker id="arr-dark" markerWidth="8" markerHeight="6" refX="8" refY="3" orient="auto">
      <polygon points="0 0, 8 3, 0 6" fill="#374151"/>
    </marker>
    <marker id="arr-orange" markerWidth="8" markerHeight="6" refX="8" refY="3" orient="auto">
      <polygon points="0 0, 8 3, 0 6" fill="#E5470A"/>
    </marker>
  </defs>
</svg>
