<svg xmlns="http://www.w3.org/2000/svg" width="1300" height="880" viewBox="0 0 1300 880">
<defs>
  <filter id="shadow" x="-8%" y="-8%" width="120%" height="120%">
    <feDropShadow dx="0" dy="2" stdDeviation="4" flood-color="rgba(0,0,0,0.12)"/>
  </filter>
  <linearGradient id="gTitle" x1="0%" y1="0%" x2="100%" y2="0%"><stop offset="0%" stop-color="#0F2D52"/><stop offset="60%" stop-color="#1E3A5F"/><stop offset="100%" stop-color="#1D4ED8"/></linearGradient>
  <linearGradient id="gTraefik" x1="0%" y1="0%" x2="100%" y2="100%"><stop offset="0%" stop-color="#0284C7"/><stop offset="100%" stop-color="#38BDF8"/></linearGradient>
  <linearGradient id="gWeb" x1="0%" y1="0%" x2="100%" y2="100%"><stop offset="0%" stop-color="#047857"/><stop offset="100%" stop-color="#10B981"/></linearGradient>
  <linearGradient id="gAuth" x1="0%" y1="0%" x2="100%" y2="100%"><stop offset="0%" stop-color="#991B1B"/><stop offset="100%" stop-color="#EF4444"/></linearGradient>
  <linearGradient id="gDonor" x1="0%" y1="0%" x2="100%" y2="100%"><stop offset="0%" stop-color="#92400E"/><stop offset="100%" stop-color="#FBBF24"/></linearGradient>
  <linearGradient id="gNotif" x1="0%" y1="0%" x2="100%" y2="100%"><stop offset="0%" stop-color="#5B21B6"/><stop offset="100%" stop-color="#8B5CF6"/></linearGradient>
  <linearGradient id="gPG" x1="0%" y1="0%" x2="100%" y2="100%"><stop offset="0%" stop-color="#1E40AF"/><stop offset="100%" stop-color="#4A90D9"/></linearGradient>
  <linearGradient id="gRedis" x1="0%" y1="0%" x2="100%" y2="100%"><stop offset="0%" stop-color="#7F1D1D"/><stop offset="100%" stop-color="#EF4444"/></linearGradient>
  <linearGradient id="gMongo" x1="0%" y1="0%" x2="100%" y2="100%"><stop offset="0%" stop-color="#14532D"/><stop offset="100%" stop-color="#47A248"/></linearGradient>
  <linearGradient id="gMQTT" x1="0%" y1="0%" x2="100%" y2="100%"><stop offset="0%" stop-color="#3B0764"/><stop offset="100%" stop-color="#7B2FBE"/></linearGradient>
  <linearGradient id="gProm" x1="0%" y1="0%" x2="100%" y2="100%"><stop offset="0%" stop-color="#9A3412"/><stop offset="100%" stop-color="#E6522C"/></linearGradient>
  <linearGradient id="gGraf" x1="0%" y1="0%" x2="100%" y2="100%"><stop offset="0%" stop-color="#7C2D12"/><stop offset="100%" stop-color="#F46800"/></linearGradient>
  <linearGradient id="gNodeE" x1="0%" y1="0%" x2="100%" y2="100%"><stop offset="0%" stop-color="#111827"/><stop offset="100%" stop-color="#374151"/></linearGradient>
  <linearGradient id="gCadv" x1="0%" y1="0%" x2="100%" y2="100%"><stop offset="0%" stop-color="#1466B8"/><stop offset="100%" stop-color="#60A5FA"/></linearGradient>
  <linearGradient id="gClient" x1="0%" y1="0%" x2="100%" y2="100%"><stop offset="0%" stop-color="#1E3A5F"/><stop offset="100%" stop-color="#2563EB"/></linearGradient>
  <marker id="mBlue" markerWidth="8" markerHeight="6" refX="7" refY="3" orient="auto"><polygon points="0 0,8 3,0 6" fill="#2563EB"/></marker>
  <marker id="mGreen" markerWidth="8" markerHeight="6" refX="7" refY="3" orient="auto"><polygon points="0 0,8 3,0 6" fill="#059669"/></marker>
  <marker id="mRed" markerWidth="8" markerHeight="6" refX="7" refY="3" orient="auto"><polygon points="0 0,8 3,0 6" fill="#DC2626"/></marker>
  <marker id="mAmber" markerWidth="8" markerHeight="6" refX="7" refY="3" orient="auto"><polygon points="0 0,8 3,0 6" fill="#D97706"/></marker>
  <marker id="mPurple" markerWidth="8" markerHeight="6" refX="7" refY="3" orient="auto"><polygon points="0 0,8 3,0 6" fill="#7C3AED"/></marker>
  <marker id="mMQTT" markerWidth="8" markerHeight="6" refX="7" refY="3" orient="auto"><polygon points="0 0,8 3,0 6" fill="#7B2FBE"/></marker>
  <marker id="mDB" markerWidth="8" markerHeight="6" refX="7" refY="3" orient="auto"><polygon points="0 0,8 3,0 6" fill="#336791"/></marker>
  <marker id="mProm" markerWidth="8" markerHeight="6" refX="7" refY="3" orient="auto"><polygon points="0 0,8 3,0 6" fill="#E6522C"/></marker>
  <marker id="mDocker" markerWidth="8" markerHeight="6" refX="7" refY="3" orient="auto"><polygon points="0 0,8 3,0 6" fill="#2496ED"/></marker>
</defs>

<!-- BACKGROUND -->
<rect width="1300" height="880" fill="#F1F5F9" rx="10"/>

<!-- TITLE BAR -->
<rect x="0" y="0" width="1300" height="54" fill="url(#gTitle)" rx="10"/>
<rect x="0" y="44" width="1300" height="10" fill="url(#gTitle)"/>
<text x="20" y="23" fill="white" font-size="19" font-weight="800" font-family="Arial,sans-serif">KidneyHub Microservice Platform</text>
<text x="20" y="42" fill="#93C5FD" font-size="10" font-family="Arial,sans-serif">AFL-3 · 13 Containers · Docker Compose · Traefik v3.0 API Gateway · REST API + MQTT + WebSocket + Prometheus/Grafana Monitoring</text>
<text x="1288" y="23" text-anchor="end" fill="#60A5FA" font-size="10" font-family="Arial,sans-serif">⚡ REST  📡 MQTT  🔴 WS  📊 Monitor</text>

<!-- COLUMN LABELS -->
<rect x="0" y="54" width="1300" height="22" fill="#E2E8F0"/>
<text x="65" y="69" text-anchor="middle" fill="#64748B" font-size="9" font-weight="700" font-family="Arial,sans-serif">CLIENTS</text>
<text x="233" y="69" text-anchor="middle" fill="#0369A1" font-size="9" font-weight="700" font-family="Arial,sans-serif">API GATEWAY</text>
<text x="445" y="69" text-anchor="middle" fill="#047857" font-size="9" font-weight="700" font-family="Arial,sans-serif">MICROSERVICES</text>
<text x="658" y="69" text-anchor="middle" fill="#6D28D9" font-size="9" font-weight="700" font-family="Arial,sans-serif">DATA LAYER</text>
<text x="875" y="69" text-anchor="middle" fill="#B45309" font-size="9" font-weight="700" font-family="Arial,sans-serif">MONITORING STACK</text>

<!-- NETWORK ZONES -->
<!-- traefik-public -->
<rect x="132" y="78" width="632" height="568" rx="10" fill="rgba(219,234,254,0.3)" stroke="#60A5FA" stroke-width="1.5" stroke-dasharray="8,4"/>
<text x="144" y="92" fill="#2563EB" font-size="8.5" font-weight="700" font-family="Arial,sans-serif">⬡ network: traefik-public</text>
<!-- monitoring -->
<rect x="774" y="78" width="518" height="568" rx="10" fill="rgba(254,243,199,0.35)" stroke="#FBBF24" stroke-width="1.5" stroke-dasharray="8,4"/>
<text x="786" y="92" fill="#B45309" font-size="8.5" font-weight="700" font-family="Arial,sans-serif">⬡ network: monitoring</text>
<!-- backend -->
<rect x="556" y="100" width="208" height="236" rx="8" fill="rgba(220,252,231,0.4)" stroke="#4ADE80" stroke-width="1.5" stroke-dasharray="5,3"/>
<text x="568" y="112" fill="#15803D" font-size="8" font-weight="700" font-family="Arial,sans-serif">backend</text>
<!-- data -->
<rect x="556" y="344" width="208" height="300" rx="8" fill="rgba(237,233,254,0.4)" stroke="#A78BFA" stroke-width="1.5" stroke-dasharray="5,3"/>
<text x="568" y="356" fill="#6D28D9" font-size="8" font-weight="700" font-family="Arial,sans-serif">data</text>

<!-- ========== ARROWS ========== -->
<!-- Clients → Traefik -->
<path d="M120,146 Q128,146 132,222" fill="none" stroke="#2563EB" stroke-width="2" stroke-dasharray="5,3" marker-end="url(#mBlue)"/>
<path d="M120,258 L134,250" fill="none" stroke="#2563EB" stroke-width="2" stroke-dasharray="5,3" marker-end="url(#mBlue)"/>
<rect x="92" y="192" width="44" height="14" rx="5" fill="#DBEAFE"/>
<text x="114" y="203" text-anchor="middle" fill="#1D4ED8" font-size="8" font-weight="700" font-family="Arial,sans-serif">HTTPS</text>

<!-- Traefik → Services -->
<path d="M328,155 L344,140" fill="none" stroke="#059669" stroke-width="2" marker-end="url(#mGreen)"/>
<path d="M328,228 L344,278" fill="none" stroke="#DC2626" stroke-width="2" marker-end="url(#mRed)"/>
<path d="M328,348 L344,390" fill="none" stroke="#D97706" stroke-width="2" marker-end="url(#mAmber)"/>
<path d="M328,438 Q336,498 344,538" fill="none" stroke="#7C3AED" stroke-width="2" stroke-dasharray="6,3" marker-end="url(#mPurple)"/>
<rect x="310" y="126" width="34" height="13" rx="4" fill="#D1FAE5"/>
<text x="327" y="136" text-anchor="middle" fill="#065F46" font-size="8" font-weight="700" font-family="Arial,sans-serif">REST</text>
<rect x="312" y="245" width="34" height="13" rx="4" fill="#FEE2E2"/>
<text x="329" y="255" text-anchor="middle" fill="#991B1B" font-size="8" font-weight="700" font-family="Arial,sans-serif">REST</text>
<rect x="296" y="349" width="54" height="14" rx="4" fill="#FEF3C7"/>
<text x="323" y="360" text-anchor="middle" fill="#92400E" font-size="7.5" font-weight="700" font-family="Arial,sans-serif">+AuthMW</text>
<rect x="312" y="482" width="34" height="13" rx="4" fill="#EDE9FE"/>
<text x="329" y="492" text-anchor="middle" fill="#5B21B6" font-size="8" font-weight="700" font-family="Arial,sans-serif">REST</text>

<!-- Web → PG -->
<path d="M542,138 Q550,126 558,158" fill="none" stroke="#336791" stroke-width="1.7" stroke-dasharray="4,3" marker-end="url(#mDB)"/>
<!-- Auth → PG -->
<path d="M542,278 Q550,230 558,174" fill="none" stroke="#336791" stroke-width="1.7" stroke-dasharray="4,3" marker-end="url(#mDB)"/>
<!-- Donor → PG (faint) -->
<path d="M542,396 Q550,290 558,180" fill="none" stroke="#336791" stroke-width="1.4" stroke-dasharray="3,3" marker-end="url(#mDB)" opacity="0.6"/>
<rect x="540" y="206" width="26" height="13" rx="4" fill="#DBEAFE"/>
<text x="553" y="216" text-anchor="middle" fill="#1E40AF" font-size="8" font-family="Arial,sans-serif">DB</text>

<!-- Donor → Redis -->
<path d="M542,408 Q550,346 558,298" fill="none" stroke="#DC382D" stroke-width="1.7" stroke-dasharray="4,3" marker-end="url(#mRed)"/>
<rect x="536" y="350" width="38" height="13" rx="4" fill="#FEE2E2"/>
<text x="555" y="360" text-anchor="middle" fill="#9B1C1C" font-size="8" font-family="Arial,sans-serif">cache</text>

<!-- Donor → Mosquitto -->
<path d="M542,420 Q550,460 558,510" fill="none" stroke="#7B2FBE" stroke-width="2.2" stroke-dasharray="6,3" marker-end="url(#mMQTT)"/>
<rect x="498" y="462" width="64" height="14" rx="4" fill="#EDE9FE"/>
<text x="530" y="473" text-anchor="middle" fill="#5B21B6" font-size="8" font-weight="700" font-family="Arial,sans-serif">MQTT Pub</text>

<!-- Mosquitto → Notification -->
<path d="M558,534 Q550,558 542,562" fill="none" stroke="#7B2FBE" stroke-width="2.2" stroke-dasharray="6,3" marker-end="url(#mMQTT)"/>
<rect x="494" y="542" width="66" height="14" rx="4" fill="#EDE9FE"/>
<text x="527" y="553" text-anchor="middle" fill="#5B21B6" font-size="8" font-weight="700" font-family="Arial,sans-serif">MQTT Sub</text>

<!-- Notification → MongoDB -->
<path d="M542,558 Q550,498 558,450" fill="none" stroke="#47A248" stroke-width="1.7" stroke-dasharray="4,3" marker-end="url(#mGreen)" opacity="0.85"/>
<rect x="536" y="498" width="36" height="13" rx="4" fill="#D1FAE5"/>
<text x="554" y="508" text-anchor="middle" fill="#065F46" font-size="8" font-family="Arial,sans-serif">store</text>

<!-- WebSocket: Notification → Browser (curved loop) -->
<path d="M344,556 Q260,620 148,614 Q72,610 70,500 Q68,260 120,218" fill="none" stroke="#7C3AED" stroke-width="2" stroke-dasharray="7,4" marker-end="url(#mPurple)" opacity="0.7"/>
<rect x="148" y="600" width="72" height="14" rx="5" fill="#EDE9FE" opacity="0.95"/>
<text x="184" y="611" text-anchor="middle" fill="#5B21B6" font-size="8.5" font-weight="700" font-family="Arial,sans-serif">WebSocket</text>

<!-- NodeExporter → Prometheus (right side of monitoring) -->
<path d="M980,406 L1020,406 L1020,160 L980,160" fill="none" stroke="#374151" stroke-width="2" marker-end="url(#mProm)"/>
<rect x="1016" y="268" width="52" height="26" rx="5" fill="#F3F4F6"/>
<text x="1042" y="280" text-anchor="middle" fill="#1F2937" font-size="8" font-weight="700" font-family="Arial,sans-serif">scrape</text>
<text x="1042" y="292" text-anchor="middle" fill="#6B7280" font-size="7.5" font-family="Arial,sans-serif">:9100</text>

<!-- cAdvisor → Prometheus -->
<path d="M980,526 L1056,526 L1056,160 L980,160" fill="none" stroke="#2496ED" stroke-width="2" marker-end="url(#mDocker)"/>
<rect x="1052" y="370" width="52" height="26" rx="5" fill="#DBEAFE"/>
<text x="1078" y="382" text-anchor="middle" fill="#1E40AF" font-size="8" font-weight="700" font-family="Arial,sans-serif">scrape</text>
<text x="1078" y="394" text-anchor="middle" fill="#6B7280" font-size="7.5" font-family="Arial,sans-serif">:8080</text>

<!-- Prometheus → Grafana -->
<path d="M880,214 L880,234" fill="none" stroke="#E6522C" stroke-width="2.5" marker-end="url(#mProm)"/>
<rect x="885" y="218" width="36" height="13" rx="4" fill="#FFEDD5"/>
<text x="903" y="228" text-anchor="middle" fill="#9A3412" font-size="8" font-weight="700" font-family="Arial,sans-serif">data</text>

<!-- ========== CLIENT CARDS ========== -->
<!-- Browser -->
<g filter="url(#shadow)">
  <rect x="10" y="100" width="110" height="90" rx="10" fill="white"/>
  <rect x="10" y="100" width="110" height="40" rx="10" fill="url(#gClient)"/>
  <rect x="10" y="130" width="110" height="10" fill="url(#gClient)"/>
  <g transform="translate(15,109)"><svg width="24" height="20" viewBox="0 0 28 22"><rect x="1" y="1" width="26" height="20" rx="3" fill="none" stroke="white" stroke-width="1.5"/><rect x="1" y="6" width="26" height="2" fill="white"/><circle cx="5" cy="3.5" r="1.3" fill="white" opacity="0.7"/><circle cx="9.5" cy="3.5" r="1.3" fill="white" opacity="0.7"/><rect x="3" y="10" width="10" height="1.5" rx="1" fill="white" opacity="0.5"/><rect x="3" y="13" width="14" height="1.5" rx="1" fill="white" opacity="0.4"/></svg></g>
  <text x="54" y="118" fill="white" font-size="10.5" font-weight="800" font-family="Arial,sans-serif">BROWSER</text>
  <text x="15" y="158" fill="#6B7280" font-size="8.5" font-family="Arial,sans-serif">HTTPS · REST API</text>
  <text x="15" y="172" fill="#6B7280" font-size="8.5" font-family="Arial,sans-serif">WebSocket Client</text>
</g>

<!-- Mobile -->
<g filter="url(#shadow)">
  <rect x="10" y="216" width="110" height="90" rx="10" fill="white"/>
  <rect x="10" y="216" width="110" height="40" rx="10" fill="url(#gClient)"/>
  <rect x="10" y="246" width="110" height="10" fill="url(#gClient)"/>
  <g transform="translate(16,222)"><svg width="16" height="24" viewBox="0 0 16 26"><rect x="1" y="1" width="14" height="24" rx="3" fill="none" stroke="white" stroke-width="1.5"/><rect x="1" y="5" width="14" height="1.5" fill="white"/><rect x="1" y="20" width="14" height="1.5" fill="white"/><circle cx="8" cy="23" r="1.5" fill="white"/></svg></g>
  <text x="54" y="234" fill="white" font-size="10.5" font-weight="800" font-family="Arial,sans-serif">MOBILE</text>
  <text x="15" y="274" fill="#6B7280" font-size="8.5" font-family="Arial,sans-serif">HTTPS · REST API</text>
  <text x="15" y="288" fill="#6B7280" font-size="8.5" font-family="Arial,sans-serif">WebSocket Client</text>
</g>

<!-- ========== TRAEFIK ========== -->
<g filter="url(#shadow)">
  <rect x="140" y="82" width="180" height="440" rx="12" fill="white" stroke="#BAE6FD" stroke-width="1"/>
  <rect x="140" y="82" width="180" height="50" rx="12" fill="url(#gTraefik)"/>
  <rect x="140" y="122" width="180" height="10" fill="url(#gTraefik)"/>
  <g transform="translate(146,88)"><svg width="32" height="32" viewBox="0 0 52 52"><polygon points="26,4 45,15 45,37 26,48 7,37 7,15" fill="none" stroke="white" stroke-width="2.5"/><polygon points="26,11 40,19 40,35 26,43 12,35 12,19" fill="none" stroke="white" stroke-width="2" opacity="0.7"/><polygon points="26,18 34,23 34,31 26,36 18,31 18,23" fill="rgba(255,255,255,0.2)"/><circle cx="26" cy="26" r="4.5" fill="white"/><circle cx="26" cy="26" r="2" fill="#0EA5E9"/></svg></g>
  <text x="188" y="101" fill="white" font-size="14" font-weight="900" font-family="Arial,sans-serif">TRAEFIK</text>
  <text x="188" y="117" fill="#E0F2FE" font-size="8.5" font-family="Arial,sans-serif">API Gateway v3.0</text>
  <text x="230" y="148" text-anchor="middle" fill="#0369A1" font-size="9" font-weight="700" font-family="Arial,sans-serif">:80 HTTP · :8080 Dashboard</text>
  <!-- routing rules -->
  <rect x="150" y="158" width="160" height="40" rx="7" fill="#F0FDF4"/>
  <rect x="150" y="158" width="4" height="40" rx="2" fill="#16A34A"/>
  <text x="160" y="173" fill="#065F46" font-size="8.5" font-weight="700" font-family="Arial,sans-serif">/ → Frontend :3000</text>
  <text x="160" y="190" fill="#6B7280" font-size="8" font-family="Arial,sans-serif">web-service container</text>

  <rect x="150" y="204" width="160" height="40" rx="7" fill="#FEF2F2"/>
  <rect x="150" y="204" width="4" height="40" rx="2" fill="#DC2626"/>
  <text x="160" y="219" fill="#991B1B" font-size="8.5" font-weight="700" font-family="Arial,sans-serif">/api/auth/* → Auth :4000</text>
  <text x="160" y="236" fill="#6B7280" font-size="8" font-family="Arial,sans-serif">auth-service container</text>

  <rect x="150" y="250" width="160" height="40" rx="7" fill="#FFFBEB"/>
  <rect x="150" y="250" width="4" height="40" rx="2" fill="#D97706"/>
  <text x="160" y="265" fill="#92400E" font-size="8" font-weight="700" font-family="Arial,sans-serif">/api/donors/* → :4001</text>
  <text x="160" y="282" fill="#B45309" font-size="8" font-family="Arial,sans-serif">🔐 + ForwardAuth</text>

  <rect x="150" y="296" width="160" height="40" rx="7" fill="#F5F3FF"/>
  <rect x="150" y="296" width="4" height="40" rx="2" fill="#7C3AED"/>
  <text x="160" y="311" fill="#5B21B6" font-size="7.5" font-weight="700" font-family="Arial,sans-serif">/api/notifications/* :4002</text>
  <text x="160" y="328" fill="#6B7280" font-size="8" font-family="Arial,sans-serif">notification-service</text>

  <!-- ForwardAuth box -->
  <rect x="150" y="345" width="160" height="52" rx="8" fill="#0F2D52"/>
  <text x="230" y="364" text-anchor="middle" fill="white" font-size="9" font-weight="700" font-family="Arial,sans-serif">🔐 ForwardAuth Middleware</text>
  <text x="230" y="378" text-anchor="middle" fill="#93C5FD" font-size="8" font-family="Arial,sans-serif">JWT Validation via</text>
  <text x="230" y="390" text-anchor="middle" fill="#93C5FD" font-size="8" font-family="Arial,sans-serif">auth-service/api/auth/verify</text>

  <rect x="148" y="404" width="58" height="16" rx="4" fill="#E0F2FE"/>
  <text x="177" y="415" text-anchor="middle" fill="#0369A1" font-size="8" font-weight="700" font-family="Arial,sans-serif">Router</text>
  <rect x="212" y="404" width="56" height="16" rx="4" fill="#E0F2FE"/>
  <text x="240" y="415" text-anchor="middle" fill="#0369A1" font-size="8" font-weight="700" font-family="Arial,sans-serif">Load Bal.</text>
  <rect x="148" y="424" width="120" height="14" rx="4" fill="#F1F5F9"/>
  <text x="208" y="434" text-anchor="middle" fill="#9CA3AF" font-size="7.5" font-family="Arial,sans-serif">container #1 · traefik:v3.0</text>
</g>

<!-- ========== MICROSERVICE CARDS ========== -->
<!-- WEB FRONTEND -->
<g filter="url(#shadow)">
  <rect x="344" y="82" width="196" height="122" rx="10" fill="white" stroke="#BBF7D0" stroke-width="1"/>
  <rect x="344" y="82" width="196" height="46" rx="10" fill="url(#gWeb)"/>
  <rect x="344" y="118" width="196" height="10" fill="url(#gWeb)"/>
  <g transform="translate(350,88)"><svg width="30" height="30" viewBox="0 0 50 50"><polygon points="25,3 44,14 44,36 25,47 6,36 6,14" fill="none" stroke="white" stroke-width="2.5"/><polygon points="25,10 38,18 38,34 25,42 12,34 12,18" fill="rgba(255,255,255,0.15)"/><text x="25" y="24" text-anchor="middle" fill="white" font-size="9" font-weight="800" font-family="Arial,sans-serif">node</text><text x="25" y="35" text-anchor="middle" fill="white" font-size="9" font-family="Arial,sans-serif">.js</text></svg></g>
  <text x="392" y="101" fill="white" font-size="11.5" font-weight="800" font-family="Arial,sans-serif">WEB FRONTEND</text>
  <text x="392" y="116" fill="#D1FAE5" font-size="8.5" font-family="Arial,sans-serif">Node.js 20 + Express</text>
  <text x="352" y="144" fill="#374151" font-size="8.5" font-family="Arial,sans-serif">8 halaman website KidneyHub</text>
  <text x="352" y="158" fill="#374151" font-size="8.5" font-family="Arial,sans-serif">JWT auth · EJS template rendering</text>
  <rect x="352" y="166" width="178" height="16" rx="8" fill="#D1FAE5"/>
  <text x="441" y="177" text-anchor="middle" fill="#065F46" font-size="8" font-weight="700" font-family="Arial,sans-serif">port :3000 · container #2</text>
</g>

<!-- AUTH SERVICE -->
<g filter="url(#shadow)">
  <rect x="344" y="218" width="196" height="122" rx="10" fill="white" stroke="#FECACA" stroke-width="1"/>
  <rect x="344" y="218" width="196" height="46" rx="10" fill="url(#gAuth)"/>
  <rect x="344" y="254" width="196" height="10" fill="url(#gAuth)"/>
  <g transform="translate(350,224)"><svg width="26" height="30" viewBox="0 0 40 48"><rect x="5" y="20" width="30" height="24" rx="5" fill="white"/><path d="M10,20 L10,14 Q10,4 20,4 Q30,4 30,14 L30,20" fill="none" stroke="white" stroke-width="3.5"/><circle cx="20" cy="32" r="4.5" fill="#DC2626"/><rect x="18" y="32" width="4" height="8" rx="2" fill="#DC2626"/></svg></g>
  <text x="392" y="237" fill="white" font-size="11.5" font-weight="800" font-family="Arial,sans-serif">AUTH SERVICE</text>
  <text x="392" y="252" fill="#FEE2E2" font-size="8.5" font-family="Arial,sans-serif">JWT Authentication</text>
  <text x="352" y="280" fill="#374151" font-size="8.5" font-family="Arial,sans-serif">register · login · verify JWT</text>
  <text x="352" y="294" fill="#374151" font-size="8.5" font-family="Arial,sans-serif">ForwardAuth /api/auth/verify</text>
  <rect x="352" y="302" width="178" height="16" rx="8" fill="#FEE2E2"/>
  <text x="441" y="313" text-anchor="middle" fill="#991B1B" font-size="8" font-weight="700" font-family="Arial,sans-serif">port :4000 · container #3</text>
</g>

<!-- DONOR SERVICE -->
<g filter="url(#shadow)">
  <rect x="344" y="354" width="196" height="134" rx="10" fill="white" stroke="#FDE68A" stroke-width="1"/>
  <rect x="344" y="354" width="196" height="46" rx="10" fill="url(#gDonor)"/>
  <rect x="344" y="390" width="196" height="10" fill="url(#gDonor)"/>
  <g transform="translate(350,360)"><svg width="30" height="30" viewBox="0 0 48 48"><rect x="3" y="7" width="16" height="12" rx="3" fill="none" stroke="white" stroke-width="2.2"/><rect x="29" y="29" width="16" height="12" rx="3" fill="none" stroke="white" stroke-width="2.2"/><path d="M19,13 L29,13 L29,35 L19,35" fill="none" stroke="white" stroke-width="1.8" stroke-linecap="round"/><polygon points="26,10 33,13 26,16" fill="white"/><polygon points="22,32 15,35 22,38" fill="white"/></svg></g>
  <text x="392" y="373" fill="white" font-size="11.5" font-weight="800" font-family="Arial,sans-serif">DONOR SERVICE</text>
  <text x="392" y="388" fill="#FEF3C7" font-size="8.5" font-family="Arial,sans-serif">REST + MQTT Publisher</text>
  <text x="352" y="416" fill="#374151" font-size="8.5" font-family="Arial,sans-serif">CRUD /api/donors/*</text>
  <text x="352" y="430" fill="#374151" font-size="8.5" font-family="Arial,sans-serif">🔐 Protected by ForwardAuth</text>
  <text x="352" y="444" fill="#374151" font-size="8.5" font-family="Arial,sans-serif">Publish → MQTT: donors/new</text>
  <rect x="352" y="452" width="178" height="16" rx="8" fill="#FEF3C7"/>
  <text x="441" y="463" text-anchor="middle" fill="#92400E" font-size="8" font-weight="700" font-family="Arial,sans-serif">port :4001 · container #4</text>
</g>

<!-- NOTIFICATION SERVICE -->
<g filter="url(#shadow)">
  <rect x="344" y="502" width="196" height="122" rx="10" fill="white" stroke="#DDD6FE" stroke-width="1"/>
  <rect x="344" y="502" width="196" height="46" rx="10" fill="url(#gNotif)"/>
  <rect x="344" y="538" width="196" height="10" fill="url(#gNotif)"/>
  <g transform="translate(350,508)"><svg width="26" height="30" viewBox="0 0 42 50"><path d="M21,46 C15,46 11,42 11,38 L31,38 C31,42 27,46 21,46Z" fill="white"/><path d="M21,8 C13,8 8,14 8,22 L8,38 L34,38 L34,22 C34,14 29,8 21,8Z" fill="white"/><line x1="21" y1="4" x2="21" y2="9" stroke="white" stroke-width="3" stroke-linecap="round"/><circle cx="29" cy="14" r="5" fill="#34D399" stroke="white" stroke-width="1.5"/><text x="29" y="17" text-anchor="middle" fill="white" font-size="6.5" font-weight="900" font-family="Arial,sans-serif">WS</text></svg></g>
  <text x="392" y="521" fill="white" font-size="10.5" font-weight="800" font-family="Arial,sans-serif">NOTIFICATION SVC</text>
  <text x="392" y="536" fill="#EDE9FE" font-size="8.5" font-family="Arial,sans-serif">WebSocket + MQTT Sub</text>
  <text x="352" y="564" fill="#374151" font-size="8.5" font-family="Arial,sans-serif">Socket.io · Subscribe kidneyhub/#</text>
  <text x="352" y="578" fill="#374151" font-size="8.5" font-family="Arial,sans-serif">Store MongoDB → WS broadcast</text>
  <rect x="352" y="586" width="178" height="16" rx="8" fill="#EDE9FE"/>
  <text x="441" y="597" text-anchor="middle" fill="#5B21B6" font-size="8" font-weight="700" font-family="Arial,sans-serif">port :4002 · container #5</text>
</g>

<!-- ========== DATA LAYER ========== -->
<!-- POSTGRESQL -->
<g filter="url(#shadow)">
  <rect x="564" y="118" width="186" height="110" rx="10" fill="white" stroke="#BFDBFE" stroke-width="1"/>
  <rect x="564" y="118" width="186" height="44" rx="10" fill="url(#gPG)"/>
  <rect x="564" y="152" width="186" height="10" fill="url(#gPG)"/>
  <g transform="translate(570,124)"><svg width="30" height="30" viewBox="0 0 48 48"><ellipse cx="26" cy="28" rx="15" ry="13" fill="white"/><ellipse cx="38" cy="20" rx="9.5" ry="11.5" fill="white"/><path d="M11,28 Q4,32 6,41 Q9,44 12,40 Q14,34 17,31" fill="white"/><ellipse cx="34" cy="22" rx="4" ry="4.5" fill="#336791"/><ellipse cx="33" cy="22" rx="2" ry="2.2" fill="white"/></svg></g>
  <text x="612" y="137" fill="white" font-size="11.5" font-weight="800" font-family="Arial,sans-serif">PostgreSQL 15</text>
  <text x="612" y="152" fill="#BFDBFE" font-size="8.5" font-family="Arial,sans-serif">Primary Database</text>
  <text x="572" y="178" fill="#374151" font-size="8.5" font-family="Arial,sans-serif">Tables: users, donors</text>
  <text x="572" y="192" fill="#374151" font-size="8.5" font-family="Arial,sans-serif">BCrypt passwords · SERIAL IDs</text>
  <rect x="572" y="200" width="170" height="16" rx="8" fill="#DBEAFE"/>
  <text x="657" y="211" text-anchor="middle" fill="#1E40AF" font-size="8" font-weight="700" font-family="Arial,sans-serif">port :5432 · container #6</text>
</g>

<!-- REDIS -->
<g filter="url(#shadow)">
  <rect x="564" y="242" width="186" height="106" rx="10" fill="white" stroke="#FECACA" stroke-width="1"/>
  <rect x="564" y="242" width="186" height="44" rx="10" fill="url(#gRedis)"/>
  <rect x="564" y="276" width="186" height="10" fill="url(#gRedis)"/>
  <g transform="translate(570,248)"><svg width="30" height="30" viewBox="0 0 48 48"><path d="M24,3 L28.5,15 L42,15 L31.5,23 L36,36 L24,28 L12,36 L16.5,23 L6,15 L19.5,15Z" fill="white"/><text x="24" y="28" text-anchor="middle" fill="#DC382D" font-size="9" font-weight="900" font-family="Arial,sans-serif">Re</text></svg></g>
  <text x="612" y="261" fill="white" font-size="11.5" font-weight="800" font-family="Arial,sans-serif">Redis 7</text>
  <text x="612" y="276" fill="#FEE2E2" font-size="8.5" font-family="Arial,sans-serif">Cache + Session Store</text>
  <text x="572" y="302" fill="#374151" font-size="8.5" font-family="Arial,sans-serif">In-memory key-value cache</text>
  <rect x="572" y="318" width="170" height="16" rx="8" fill="#FEE2E2"/>
  <text x="657" y="329" text-anchor="middle" fill="#991B1B" font-size="8" font-weight="700" font-family="Arial,sans-serif">port :6379 · container #8</text>
</g>

<!-- MONGODB -->
<g filter="url(#shadow)">
  <rect x="564" y="362" width="186" height="110" rx="10" fill="white" stroke="#BBF7D0" stroke-width="1"/>
  <rect x="564" y="362" width="186" height="44" rx="10" fill="url(#gMongo)"/>
  <rect x="564" y="396" width="186" height="10" fill="url(#gMongo)"/>
  <g transform="translate(572,368)"><svg width="22" height="32" viewBox="0 0 34 48"><path d="M17,46 L17,6 C24,3 33,10 31,22 C29,32 21,39 17,46Z" fill="white"/><path d="M17,46 L17,6 C10,3 1,10 3,22 C5,32 13,39 17,46Z" fill="white" opacity="0.65"/></svg></g>
  <text x="612" y="381" fill="white" font-size="11.5" font-weight="800" font-family="Arial,sans-serif">MongoDB 7</text>
  <text x="612" y="396" fill="#D1FAE5" font-size="8.5" font-family="Arial,sans-serif">Notification Storage</text>
  <text x="572" y="422" fill="#374151" font-size="8.5" font-family="Arial,sans-serif">Collection: notifications</text>
  <text x="572" y="436" fill="#374151" font-size="8.5" font-family="Arial,sans-serif">Returns last 50 notifications</text>
  <rect x="572" y="444" width="170" height="16" rx="8" fill="#D1FAE5"/>
  <text x="657" y="455" text-anchor="middle" fill="#065F46" font-size="8" font-weight="700" font-family="Arial,sans-serif">port :27017 · container #7</text>
</g>

<!-- MOSQUITTO -->
<g filter="url(#shadow)">
  <rect x="564" y="486" width="186" height="110" rx="10" fill="white" stroke="#DDD6FE" stroke-width="1"/>
  <rect x="564" y="486" width="186" height="44" rx="10" fill="url(#gMQTT)"/>
  <rect x="564" y="520" width="186" height="10" fill="url(#gMQTT)"/>
  <g transform="translate(570,492)"><svg width="30" height="30" viewBox="0 0 48 48"><line x1="24" y1="46" x2="24" y2="28" stroke="white" stroke-width="3.5" stroke-linecap="round"/><circle cx="24" cy="22" r="5.5" fill="white"/><circle cx="24" cy="22" r="2.5" fill="#7B2FBE"/><path d="M13,29 Q24,20 35,29" fill="none" stroke="white" stroke-width="2.5" stroke-linecap="round"/><path d="M7,35 Q24,23 41,35" fill="none" stroke="white" stroke-width="2" stroke-linecap="round" opacity="0.7"/><path d="M2,41 Q24,27 46,41" fill="none" stroke="white" stroke-width="1.5" stroke-linecap="round" opacity="0.4"/></svg></g>
  <text x="612" y="505" fill="white" font-size="11.5" font-weight="800" font-family="Arial,sans-serif">Mosquitto</text>
  <text x="612" y="520" fill="#E9D5FF" font-size="8.5" font-family="Arial,sans-serif">MQTT Broker v2</text>
  <text x="572" y="546" fill="#374151" font-size="8.5" font-family="Arial,sans-serif">Topic: kidneyhub/#</text>
  <text x="572" y="560" fill="#374151" font-size="8.5" font-family="Arial,sans-serif">Pub/Sub pattern · persistent</text>
  <rect x="572" y="568" width="170" height="16" rx="8" fill="#EDE9FE"/>
  <text x="657" y="579" text-anchor="middle" fill="#5B21B6" font-size="8" font-weight="700" font-family="Arial,sans-serif">port :1883 · container #9</text>
</g>

<!-- ========== MONITORING STACK ========== -->
<!-- PROMETHEUS -->
<g filter="url(#shadow)">
  <rect x="784" y="118" width="186" height="110" rx="10" fill="white" stroke="#FED7AA" stroke-width="1"/>
  <rect x="784" y="118" width="186" height="44" rx="10" fill="url(#gProm)"/>
  <rect x="784" y="152" width="186" height="10" fill="url(#gProm)"/>
  <g transform="translate(790,124)"><svg width="28" height="32" viewBox="0 0 40 48"><path d="M20,46 C8,36 7,22 12,12 C13,19 16,17 17,12 C18,6 20,3 20,3 C20,3 22,6 23,12 C24,17 27,19 28,12 C33,22 32,36 20,46Z" fill="white"/><path d="M20,46 C14,38 13,28 16,22 C17,25 19,23 20,23 C21,23 23,25 24,22 C27,28 26,38 20,46Z" fill="#FCD34D"/></svg></g>
  <text x="828" y="137" fill="white" font-size="11.5" font-weight="800" font-family="Arial,sans-serif">Prometheus</text>
  <text x="828" y="152" fill="#FDBA74" font-size="8.5" font-family="Arial,sans-serif">Metrics Collector</text>
  <text x="792" y="178" fill="#374151" font-size="8.5" font-family="Arial,sans-serif">Scrape node-exporter + cAdvisor</text>
  <text x="792" y="192" fill="#374151" font-size="8.5" font-family="Arial,sans-serif">Scrape interval: 15s</text>
  <rect x="792" y="200" width="170" height="16" rx="8" fill="#FEE2E2"/>
  <text x="877" y="211" text-anchor="middle" fill="#9A3412" font-size="8" font-weight="700" font-family="Arial,sans-serif">port :9090 · container #10</text>
</g>

<!-- GRAFANA -->
<g filter="url(#shadow)">
  <rect x="784" y="242" width="186" height="110" rx="10" fill="white" stroke="#FED7AA" stroke-width="1"/>
  <rect x="784" y="242" width="186" height="44" rx="10" fill="url(#gGraf)"/>
  <rect x="784" y="276" width="186" height="10" fill="url(#gGraf)"/>
  <g transform="translate(790,248)"><svg width="30" height="30" viewBox="0 0 48 48"><polygon points="24,3 44,24 24,45 4,24" fill="white"/><polygon points="24,10 37,24 24,38 11,24" fill="#F46800" opacity="0.5"/><text x="24" y="30" text-anchor="middle" fill="white" font-size="16" font-weight="900" font-family="Arial,sans-serif">G</text></svg></g>
  <text x="828" y="261" fill="white" font-size="11.5" font-weight="800" font-family="Arial,sans-serif">Grafana</text>
  <text x="828" y="276" fill="#FED7AA" font-size="8.5" font-family="Arial,sans-serif">Monitoring Dashboard</text>
  <text x="792" y="302" fill="#374151" font-size="8.5" font-family="Arial,sans-serif">Source: Prometheus</text>
  <text x="792" y="316" fill="#374151" font-size="8.5" font-family="Arial,sans-serif">admin / admin123</text>
  <rect x="792" y="324" width="170" height="16" rx="8" fill="#FFEDD5"/>
  <text x="877" y="335" text-anchor="middle" fill="#9A3412" font-size="8" font-weight="700" font-family="Arial,sans-serif">port :3001 · container #11</text>
</g>

<!-- NODE EXPORTER -->
<g filter="url(#shadow)">
  <rect x="784" y="366" width="186" height="110" rx="10" fill="white" stroke="#D1D5DB" stroke-width="1"/>
  <rect x="784" y="366" width="186" height="44" rx="10" fill="url(#gNodeE)"/>
  <rect x="784" y="400" width="186" height="10" fill="url(#gNodeE)"/>
  <g transform="translate(790,372)"><svg width="30" height="30" viewBox="0 0 48 48"><rect x="4" y="28" width="10" height="16" rx="2" fill="white"/><rect x="19" y="20" width="10" height="24" rx="2" fill="white"/><rect x="34" y="10" width="10" height="34" rx="2" fill="white" opacity="0.9"/><line x1="2" y1="44" x2="46" y2="44" stroke="white" stroke-width="2.5" stroke-linecap="round"/><path d="M9,24 L24,16 L39,6" fill="none" stroke="#60A5FA" stroke-width="2" stroke-linecap="round"/></svg></g>
  <text x="828" y="385" fill="white" font-size="11.5" font-weight="800" font-family="Arial,sans-serif">Node Exporter</text>
  <text x="828" y="400" fill="#D1D5DB" font-size="8.5" font-family="Arial,sans-serif">Host Metrics (OS)</text>
  <text x="792" y="426" fill="#374151" font-size="8.5" font-family="Arial,sans-serif">CPU · RAM · Disk · Network</text>
  <text x="792" y="440" fill="#374151" font-size="8.5" font-family="Arial,sans-serif">Reads from /proc /sys (host)</text>
  <rect x="792" y="448" width="170" height="16" rx="8" fill="#F3F4F6"/>
  <text x="877" y="459" text-anchor="middle" fill="#1F2937" font-size="8" font-weight="700" font-family="Arial,sans-serif">port :9100 · container #12</text>
</g>

<!-- CADVISOR -->
<g filter="url(#shadow)">
  <rect x="784" y="490" width="186" height="110" rx="10" fill="white" stroke="#BFDBFE" stroke-width="1"/>
  <rect x="784" y="490" width="186" height="44" rx="10" fill="url(#gCadv)"/>
  <rect x="784" y="524" width="186" height="10" fill="url(#gCadv)"/>
  <g transform="translate(788,496)"><svg width="34" height="28" viewBox="0 0 52 40"><ellipse cx="27" cy="30" rx="19" ry="9" fill="white"/><circle cx="39" cy="20" r="10" fill="white"/><path d="M8,30 Q3,26 5,19 Q9,23 12,21" fill="white"/><rect x="15" y="16" width="7" height="5" rx="1" fill="#2496ED"/><rect x="24" y="14" width="7" height="7" rx="1" fill="#2496ED"/><rect x="33" y="16" width="7" height="5" rx="1" fill="#2496ED"/><circle cx="40.5" cy="17.5" r="3" fill="#2496ED"/><circle cx="40.5" cy="17.5" r="1.2" fill="white"/></svg></g>
  <text x="832" y="509" fill="white" font-size="11.5" font-weight="800" font-family="Arial,sans-serif">cAdvisor</text>
  <text x="832" y="524" fill="#BFDBFE" font-size="8.5" font-family="Arial,sans-serif">Container Metrics</text>
  <text x="792" y="550" fill="#374151" font-size="8.5" font-family="Arial,sans-serif">CPU/RAM/Net per container</text>
  <text x="792" y="564" fill="#374151" font-size="8.5" font-family="Arial,sans-serif">Docker socket · privileged</text>
  <rect x="792" y="572" width="170" height="16" rx="8" fill="#DBEAFE"/>
  <text x="877" y="583" text-anchor="middle" fill="#1E40AF" font-size="8" font-weight="700" font-family="Arial,sans-serif">port :8081 · container #13</text>
</g>

<!-- ========== LEGEND ========== -->
<rect x="0" y="656" width="1300" height="2" fill="#E2E8F0"/>
<rect x="0" y="658" width="1300" height="88" fill="white"/>
<rect x="0" y="842" width="1300" height="38" fill="white" rx="10"/>
<rect x="0" y="820" width="1300" height="22" fill="white"/>

<text x="650" y="678" text-anchor="middle" fill="#1E3A5F" font-size="12" font-weight="800" font-family="Arial,sans-serif">LEGENDA ARSITEKTUR</text>

<!-- Arrow legend items -->
<line x1="20" y1="696" x2="62" y2="696" stroke="#2563EB" stroke-width="2"/>
<polygon points="62,693 70,696 62,699" fill="#2563EB"/>
<text x="78" y="700" fill="#374151" font-size="9" font-family="Arial,sans-serif">REST API (HTTP)</text>

<line x1="180" y1="696" x2="222" y2="696" stroke="#7B2FBE" stroke-width="2" stroke-dasharray="6,3"/>
<polygon points="222,693 230,696 222,699" fill="#7B2FBE"/>
<text x="238" y="700" fill="#374151" font-size="9" font-family="Arial,sans-serif">MQTT Pub/Subscribe</text>

<line x1="390" y1="696" x2="432" y2="696" stroke="#7C3AED" stroke-width="2" stroke-dasharray="7,4"/>
<polygon points="432,693 440,696 432,699" fill="#7C3AED"/>
<text x="448" y="700" fill="#374151" font-size="9" font-family="Arial,sans-serif">WebSocket Real-time</text>

<line x1="600" y1="696" x2="642" y2="696" stroke="#336791" stroke-width="2" stroke-dasharray="4,3"/>
<polygon points="642,693 650,696 642,699" fill="#336791"/>
<text x="658" y="700" fill="#374151" font-size="9" font-family="Arial,sans-serif">Database Connection</text>

<line x1="810" y1="696" x2="852" y2="696" stroke="#E6522C" stroke-width="2"/>
<polygon points="852,693 860,696 852,699" fill="#E6522C"/>
<text x="868" y="700" fill="#374151" font-size="9" font-family="Arial,sans-serif">Prometheus Scrape</text>

<!-- Network zone legend -->
<rect x="20" y="710" width="16" height="10" rx="2" fill="rgba(219,234,254,0.6)" stroke="#60A5FA" stroke-width="1.5" stroke-dasharray="4,2"/>
<text x="44" y="720" fill="#374151" font-size="9" font-family="Arial,sans-serif">traefik-public network</text>
<rect x="200" y="710" width="16" height="10" rx="2" fill="rgba(254,243,199,0.6)" stroke="#FBBF24" stroke-width="1.5" stroke-dasharray="4,2"/>
<text x="224" y="720" fill="#374151" font-size="9" font-family="Arial,sans-serif">monitoring network</text>
<rect x="376" y="710" width="16" height="10" rx="2" fill="rgba(220,252,231,0.6)" stroke="#4ADE80" stroke-width="1.5" stroke-dasharray="4,2"/>
<text x="400" y="720" fill="#374151" font-size="9" font-family="Arial,sans-serif">backend network</text>
<rect x="548" y="710" width="16" height="10" rx="2" fill="rgba(237,233,254,0.6)" stroke="#A78BFA" stroke-width="1.5" stroke-dasharray="4,2"/>
<text x="572" y="720" fill="#374151" font-size="9" font-family="Arial,sans-serif">data network</text>

<!-- ForwardAuth note -->
<rect x="20" y="730" width="900" height="16" rx="5" fill="#FFFBEB"/>
<text x="28" y="742" fill="#92400E" font-size="8.5" font-weight="700" font-family="Arial,sans-serif">🔐 ForwardAuth Middleware: Traefik intercepts /api/donors/* → validates JWT ke auth-service/api/auth/verify → jika valid, forward ke donor-service dengan header X-Auth-User</text>

<text x="650" y="774" text-anchor="middle" fill="#9CA3AF" font-size="9" font-family="Arial,sans-serif">KidneyHub AFL-3 Microservice Platform · Ervandy Rangganata · 4 Docker Networks: traefik-public · backend · data · monitoring · 13 Containers Total</text>
</svg>